<svg width="14" height="24" viewBox="0 0 14 24" fill="none" xmlns="http://www.w3.org/2000/svg">
<path d="M5.17391 1.02025L13.087 9.67211C13.3913 10.0049 13.6196 10.3654 13.7717 10.7536C13.9239 11.1418 14 11.5578 14 12.0015C14 12.4451 13.9239 12.8611 13.7717 13.2493C13.6196 13.6375 13.3913 13.998 13.087 14.3308L5.17391 22.9827C4.21015 24.0364 3.10638 24.2716 1.86261 23.6881C0.618846 23.1047 -0.00202465 22.0653 4.76837e-06 20.5701L4.76837e-06 3.43279C4.76837e-06 1.93535 0.621888 0.894907 1.86566 0.31146C3.10942 -0.271984 4.21218 -0.0357246 5.17391 1.02025Z" fill="white"/>
</svg>
